<?xml version="1.0" encoding="UTF-8"?>
<svg version="1.1" xmlns="http://www.w3.org/2000/svg" width="600" height="748">
<path d="M0 0 C5.89817422 3.77861212 12.01027898 7.03946941 18.2109375 10.2890625 C43.02484955 23.49318514 66.75238851 38.55483071 87.53125 57.5859375 C89.44346832 59.31017504 91.39116513 60.92954456 93.3984375 62.5390625 C102.37771453 70.20842147 113.79962399 83.49389297 115.171875 95.63671875 C115.18476562 96.65636719 115.19765625 97.67601562 115.2109375 98.7265625 C115.23929688 99.74878906 115.26765625 100.77101563 115.296875 101.82421875 C114.72184839 105.36696742 113.62855372 106.48138592 110.8359375 108.6640625 C101.74206893 111.69535202 93.03744642 108.66399711 84.74853516 104.65429688 C79.88279426 102.19434143 75.08717784 99.60594331 70.29736328 97.00195312 C21.64085878 67.91260866 21.64085878 67.91260866 -32.53125 61.171875 C-37.102682 62.62870498 -39.6998643 64.58865778 -42.1640625 68.6640625 C-48.32809651 81.30033222 -42.00767493 97.19442407 -37.8828125 109.59765625 C-27.34491088 139.03638723 -11.70406574 166.64179688 3.8359375 193.6640625 C5.07949035 195.83590128 6.32297807 198.00777735 7.56640625 200.1796875 C14.82901311 212.85597292 14.82901311 212.85597292 22.3125 225.40234375 C22.85575928 226.29477783 23.39901855 227.18721191 23.95874023 228.10668945 C24.95879754 229.74120346 25.9654905 231.37168798 26.98071289 232.99682617 C37.79722702 250.64055247 39.71450039 271.00601837 35.2109375 291.1015625 C34.49925567 293.98257246 33.69901057 296.82497079 32.8359375 299.6640625 C32.64290039 300.30794922 32.44986328 300.95183594 32.25097656 301.61523438 C26.84404865 318.96357124 17.57210023 336.05811837 6.8359375 350.6640625 C6.39813965 351.26734375 5.9603418 351.870625 5.50927734 352.4921875 C-1.32278049 361.88829005 -8.47659788 370.95152115 -16.1640625 379.6640625 C-17.1216748 380.75303833 -17.1216748 380.75303833 -18.09863281 381.86401367 C-23.56676821 388.01658183 -29.24639457 393.93266264 -35.06542969 399.75073242 C-36.5361266 401.22362222 -37.99859784 402.70436515 -39.4609375 404.18554688 C-44.96182563 409.71854102 -50.65371567 414.86701831 -56.75683594 419.74047852 C-58.67502042 421.27327522 -60.54143005 422.82998366 -62.37890625 424.45703125 C-86.03430713 445.26156602 -115.13530435 463.36078049 -144.7265625 474.2265625 C-145.56928711 474.53682373 -146.41201172 474.84708496 -147.28027344 475.16674805 C-149.89077365 476.07707503 -152.50955865 476.89139884 -155.1640625 477.6640625 C-156.14117187 477.94958984 -157.11828125 478.23511719 -158.125 478.52929688 C-169.3348943 481.36868926 -180.54597786 481.12726556 -192.0390625 481.0390625 C-193.08453247 481.03507446 -194.13000244 481.03108643 -195.20715332 481.02697754 C-210.389948 480.95888282 -225.20900137 480.49489694 -240.1640625 477.6640625 C-240.93218262 477.53016113 -241.70030273 477.39625977 -242.49169922 477.25830078 C-254.40484143 475.1658285 -265.95632935 471.80598139 -277.58862305 468.53222656 C-299.12453892 462.53750325 -319.74479058 461.51105755 -341.9765625 461.6015625 C-344.1334625 461.60658797 -346.29036364 461.61114902 -348.44726562 461.61523438 C-353.68622303 461.62615599 -358.92513734 461.64281092 -364.1640625 461.6640625 C-362.08161531 455.04243787 -358.68306352 450.86174133 -354.1640625 445.6640625 C-353.60460937 445.01953125 -353.04515625 444.375 -352.46875 443.7109375 C-346.80076231 437.63222607 -339.62408678 433.24557299 -332.1640625 429.6640625 C-334.72532314 430.9582365 -337.28799608 432.24947034 -339.8515625 433.5390625 C-340.57279297 433.90386719 -341.29402344 434.26867187 -342.03710938 434.64453125 C-345.69531614 436.4819867 -349.325232 438.22544752 -353.1640625 439.6640625 C-353.0199155 436.37231985 -352.87337966 433.08068705 -352.7265625 429.7890625 C-352.68217041 428.77602051 -352.63777832 427.76297852 -352.59204102 426.71923828 C-352.3939772 422.29639317 -352.19603274 417.8767756 -351.875 413.4609375 C-349.62986969 381.25935426 -351.58548912 348.84848671 -353.1640625 316.6640625 C-353.8240625 317.6540625 -354.4840625 318.6440625 -355.1640625 319.6640625 C-362.7585045 314.83240397 -369.62763492 309.87036747 -376.1640625 303.6640625 C-370.69299775 312.22650124 -363.84012034 317.56459624 -354.1640625 320.6640625 C-354.24999371 328.89906581 -354.34539551 337.13389078 -354.45158958 345.3686552 C-354.50067659 349.19601325 -354.54697968 353.02335446 -354.5859375 356.85083008 C-354.75833096 373.58642275 -355.11278477 390.23111548 -356.48446655 406.91886902 C-357.32512083 417.34699441 -357.71029841 427.71656674 -356.2890625 438.1015625 C-355.82267613 444.02663999 -355.82267613 444.02663999 -357.22265625 446.640625 C-358.7265625 448.2265625 -358.7265625 448.2265625 -360.41796875 449.73828125 C-363.53873765 453.1802031 -364.83342205 457.67506752 -366.4765625 461.96875 C-368.1640625 464.6640625 -368.1640625 464.6640625 -371.3515625 465.546875 C-372.2796875 465.58554687 -373.2078125 465.62421875 -374.1640625 465.6640625 C-376.88118489 457.79097431 -379.17762911 449.81187612 -381.4453125 441.80078125 C-381.85947334 440.34221958 -382.27366888 438.88366776 -382.68789673 437.42512512 C-384.01819091 432.7353184 -385.34213578 428.04373389 -386.6640625 423.3515625 C-386.88949486 422.55152802 -387.11492722 421.75149353 -387.34719086 420.92721558 C-407.39507682 349.73797469 -424.77661934 277.61652549 -430.8515625 203.7265625 C-430.91259155 203.00554352 -430.97362061 202.28452454 -431.03649902 201.54165649 C-433.349003 173.74187325 -433.31435972 145.79373879 -433.26545644 117.91851807 C-433.25905899 113.63187841 -433.25860652 109.34523745 -433.25743103 105.05859375 C-433.25436472 96.99897854 -433.24621713 88.93937745 -433.23608154 80.87976837 C-433.22477132 71.67968698 -433.21937302 62.47960478 -433.21438611 53.27951813 C-433.2040286 34.40769168 -433.18652376 15.53587824 -433.1640625 -3.3359375 C-429.21860571 -1.10130696 -425.43791768 1.08972354 -421.7890625 3.7890625 C-384.58932244 30.00177289 -340.37338236 44.60509297 -294.73803711 37.14233398 C-256.51323021 30.25891058 -220.52540054 15.86282113 -189.1875 -7.171875 C-186.57427096 -9.04232576 -183.94650646 -10.73267054 -181.1640625 -12.3359375 C-180.69355469 -11.43230469 -180.22304688 -10.52867187 -179.73828125 -9.59765625 C-179.10966372 -8.40609764 -178.48074141 -7.21469978 -177.8515625 -6.0234375 C-177.54283203 -5.42853516 -177.23410156 -4.83363281 -176.91601562 -4.22070312 C-175.15816334 -0.84726273 -175.15816334 -0.84726273 -172.72680664 2.04125977 C-170.75125471 4.09273511 -169.6495735 6.23854558 -168.3359375 8.765625 C-167.51911499 10.31757568 -167.51911499 10.31757568 -166.68579102 11.90087891 C-166.10112061 13.01897949 -165.5164502 14.13708008 -164.9140625 15.2890625 C-155.0666693 33.83547986 -144.09061198 51.65760015 -132.92993164 69.43847656 C-115.95129649 96.51447973 -99.62726093 123.97696542 -84.52099609 152.14697266 C-83.23635617 154.52995892 -81.93147398 156.90062945 -80.62109375 159.26953125 C-70.4321907 177.87500395 -62.33403446 197.4443378 -55.6015625 217.5390625 C-54.99344727 219.34564331 -54.99344727 219.34564331 -54.37304688 221.1887207 C-43.52810371 254.46695356 -45.57924778 287.32947757 -61.20019531 318.74804688 C-68.98828458 333.78170039 -78.97823569 347.01640836 -90.1640625 359.6640625 C-90.65165039 360.22013184 -91.13923828 360.77620117 -91.64160156 361.34912109 C-98.29129676 368.89771645 -105.16874769 375.51297086 -113.1640625 381.6640625 C-114.15921875 382.47488281 -115.154375 383.28570313 -116.1796875 384.12109375 C-124.30240914 390.6805889 -132.95603968 395.77045345 -142.1640625 400.6640625 C-125.11409128 392.86192224 -110.57918103 382.75098241 -97.1640625 369.6640625 C-96.48601562 369.04789063 -95.80796875 368.43171875 -95.109375 367.796875 C-88.47191068 361.60007221 -83.25232791 354.14637021 -77.83984375 346.89550781 C-76.23614962 344.76005264 -74.61099247 342.64323363 -72.9765625 340.53125 C-66.352609 331.9302625 -60.44051018 323.15286562 -55.1640625 313.6640625 C-54.53757812 312.55933594 -53.91109375 311.45460938 -53.265625 310.31640625 C-36.38145316 278.79682781 -38.68466211 243.3020726 -48.7265625 209.9765625 C-59.41097094 176.19980306 -74.49747643 143.76422067 -91.89550781 112.94287109 C-93.85101465 109.43003415 -95.68908813 105.85820928 -97.5390625 102.2890625 C-101.21769154 95.22907602 -105.23891661 88.39115607 -109.2890625 81.5390625 C-120.7903838 61.94665101 -129.53117723 43.54033602 -124.44140625 20.375 C-119.97491247 5.4093455 -110.2007034 -6.07218185 -96.68505859 -13.65332031 C-64.81226894 -30.41585648 -28.15737112 -18.24686732 0 0 Z M-176.1640625 1.6640625 C-176.77894531 2.49550781 -177.39382813 3.32695312 -178.02734375 4.18359375 C-178.84362101 5.28134593 -179.66003443 6.37899687 -180.4765625 7.4765625 C-180.88068359 8.02376953 -181.28480469 8.57097656 -181.70117188 9.13476562 C-183.70690597 11.82538454 -185.6931923 14.38510455 -188.1640625 16.6640625 C-187.8340625 17.3240625 -187.5040625 17.9840625 -187.1640625 18.6640625 C-182.40181604 14.27236548 -177.81783042 9.67650543 -175.1640625 3.6640625 C-175.4940625 3.0040625 -175.8240625 2.3440625 -176.1640625 1.6640625 Z M-192.1640625 20.6640625 C-193.80082507 22.6240906 -193.80082507 22.6240906 -195.1640625 24.6640625 C-192.04208772 23.3551053 -192.04208772 23.3551053 -190.1640625 20.6640625 C-190.8240625 20.6640625 -191.4840625 20.6640625 -192.1640625 20.6640625 Z M-374.90234375 50.32421875 C-377.1640625 50.6640625 -377.1640625 50.6640625 -380.1640625 49.6640625 C-386.19130727 53.08493116 -390.02040112 60.23307835 -392.1640625 66.6640625 C-393.21993959 76.7015776 -391.96016395 84.30976702 -386.1640625 92.6640625 C-382.76831945 96.79305825 -379.46087081 99.83707747 -374.0390625 100.6015625 C-372.41470565 100.65180034 -370.78918871 100.66894276 -369.1640625 100.6640625 C-368.09929687 100.72335937 -367.03453125 100.78265625 -365.9375 100.84375 C-355.3385461 101.24326711 -346.2196415 99.25058885 -337.1640625 93.6640625 C-335.9678125 93.1896875 -334.7715625 92.7153125 -333.5390625 92.2265625 C-330.15811348 90.66130833 -328.77075671 89.97196235 -327.1640625 86.6640625 C-326.49725882 83.70685622 -326.49725882 83.70685622 -327.1640625 80.6640625 C-329.6070331 77.43071906 -331.28442241 75.93895003 -335.1640625 74.7265625 C-339.19658667 74.64255158 -341.6595684 75.58942386 -344.9140625 77.9140625 C-346.81129949 80.57019429 -347.10125494 82.39806927 -347.1640625 85.6640625 C-346.06162368 88.22955096 -344.71378479 90.31599842 -343.1640625 92.6640625 C-344.72565309 93.14618464 -346.28838178 93.62462123 -347.8515625 94.1015625 C-348.72167969 94.36839844 -349.59179688 94.63523437 -350.48828125 94.91015625 C-361.29097419 97.9538347 -370.76507458 97.0249284 -381.1640625 92.6640625 C-384.37688365 90.1238587 -385.83902375 87.19394415 -386.68359375 83.21875 C-387.59196587 74.91017302 -386.77527441 67.71095703 -381.6640625 60.8515625 C-376.61554876 55.48593106 -368.38354014 52.1040766 -361.06445312 51.48706055 C-347.37373208 51.11321688 -335.83218695 51.42413928 -324.58984375 60.19921875 C-323.1640625 61.6640625 -323.1640625 61.6640625 -322.1640625 64.6640625 C-321.4834375 65.31375 -321.4834375 65.31375 -320.7890625 65.9765625 C-315.49628613 71.47290719 -314.99015347 78.22696274 -315.0625 85.4375 C-315.19003862 88.23353894 -315.60203271 90.92416726 -316.1640625 93.6640625 C-312.77396672 91.04444304 -311.83084921 87.73887019 -311.1640625 83.6640625 C-310.56370644 76.81172267 -310.63220631 69.76817622 -314.1640625 63.6640625 C-316.87964571 61.93044326 -316.87964571 61.93044326 -320.1640625 60.6640625 C-321.42215606 59.57150757 -322.64894132 58.44239593 -323.8515625 57.2890625 C-332.49978518 49.51223869 -344.30566493 46.11079327 -355.859375 46.3984375 C-362.28991218 47.13958416 -368.6174587 48.80903248 -374.90234375 50.32421875 Z M-317.1640625 93.6640625 C-316.1640625 95.6640625 -316.1640625 95.6640625 -316.1640625 95.6640625 Z M-178.1640625 219.6640625 C-178.1640625 222.6640625 -178.1640625 222.6640625 -178.1640625 222.6640625 Z M-182.1640625 224.6640625 C-206.84455471 250.21749816 -216.76640484 287.42243912 -221.1640625 321.6640625 C-221.30763184 322.72185913 -221.30763184 322.72185913 -221.45410156 323.80102539 C-222.48017739 332.40590325 -222.40781963 341.07320761 -222.4140625 349.7265625 C-222.41473724 350.5673233 -222.41541199 351.40808411 -222.41610718 352.27432251 C-222.38399867 377.55152214 -220.02298252 402.51376917 -209.1640625 425.6640625 C-207.8440625 425.6640625 -206.5240625 425.6640625 -205.1640625 425.6640625 C-205.7172586 420.01066825 -206.82729784 414.69599959 -208.23388672 409.1953125 C-222.38261952 353.73296632 -218.5289947 287.60741038 -189.25 237.42041016 C-186.87461994 233.57857469 -184.1566368 230.04153382 -181.1640625 226.6640625 C-181.6590625 225.6740625 -181.6590625 225.6740625 -182.1640625 224.6640625 Z M-254.1640625 332.6640625 C-254.47520996 333.69474854 -254.78635742 334.72543457 -255.10693359 335.78735352 C-260.79725493 354.55973474 -266.51730601 373.04608567 -274.85498047 390.84375 C-277.41196891 396.35257702 -279.83966692 401.91930618 -282.2890625 407.4765625 C-282.77511963 408.56428955 -283.26117676 409.6520166 -283.76196289 410.77270508 C-284.20660889 411.77454834 -284.65125488 412.7763916 -285.109375 413.80859375 C-285.70516357 415.14434448 -285.70516357 415.14434448 -286.31298828 416.50708008 C-287.2864058 418.58766314 -287.2864058 418.58766314 -287.1640625 420.6640625 C-291.7840625 420.9940625 -296.4040625 421.3240625 -301.1640625 421.6640625 C-301.1640625 421.9940625 -301.1640625 422.3240625 -301.1640625 422.6640625 C-300.22763916 422.67864502 -299.29121582 422.69322754 -298.32641602 422.70825195 C-277.47655831 423.05422194 -256.74617301 423.93752702 -235.96118164 425.64770508 C-226.9953921 426.37654454 -218.16734534 426.87297176 -209.1640625 426.6640625 C-209.1640625 426.3340625 -209.1640625 426.0040625 -209.1640625 425.6640625 C-234.14313683 422.6644778 -259.02793225 420.70479094 -284.1640625 419.6640625 C-283.56658203 418.61927734 -282.96910156 417.57449219 -282.35351562 416.49804688 C-278.18438007 409.1725869 -274.05178533 401.89201077 -270.6640625 394.1640625 C-270.30223877 393.34566895 -269.94041504 392.52727539 -269.56762695 391.68408203 C-263.64838901 378.08194085 -257.87991476 364.23153563 -254.6015625 349.7265625 C-254.44518311 349.0361084 -254.28880371 348.3456543 -254.12768555 347.63427734 C-253.1062707 342.59677507 -253.04860683 337.79932992 -253.1640625 332.6640625 C-253.4940625 332.6640625 -253.8240625 332.6640625 -254.1640625 332.6640625 Z M-158.1640625 407.6640625 C-158.8240625 408.3240625 -159.4840625 408.9840625 -160.1640625 409.6640625 C-158.5140625 409.3340625 -156.8640625 409.0040625 -155.1640625 408.6640625 C-156.1540625 408.3340625 -157.1440625 408.0040625 -158.1640625 407.6640625 Z M-167.1640625 411.6640625 C-167.8240625 412.3240625 -168.4840625 412.9840625 -169.1640625 413.6640625 C-167.5140625 413.3340625 -165.8640625 413.0040625 -164.1640625 412.6640625 C-165.1540625 412.3340625 -166.1440625 412.0040625 -167.1640625 411.6640625 Z M-179.1640625 416.6640625 C-179.8240625 417.3240625 -180.4840625 417.9840625 -181.1640625 418.6640625 C-179.5140625 418.3340625 -177.8640625 418.0040625 -176.1640625 417.6640625 C-177.1540625 417.3340625 -178.1440625 417.0040625 -179.1640625 416.6640625 Z M-189.3515625 420.6015625 C-190.25261719 420.98183594 -191.15367187 421.36210938 -192.08203125 421.75390625 C-192.76910156 422.05425781 -193.45617187 422.35460937 -194.1640625 422.6640625 C-190.45624578 423.90000141 -189.48895997 423.2318757 -185.9765625 421.7265625 C-185.07550781 421.34628906 -184.17445313 420.96601562 -183.24609375 420.57421875 C-182.55902344 420.27386719 -181.87195313 419.97351563 -181.1640625 419.6640625 C-184.87187922 418.42812359 -185.83916503 419.0962493 -189.3515625 420.6015625 Z M-308.1640625 422.6640625 C-308.1640625 422.9940625 -308.1640625 423.3240625 -308.1640625 423.6640625 C-305.8540625 423.6640625 -303.5440625 423.6640625 -301.1640625 423.6640625 C-301.1640625 423.3340625 -301.1640625 423.0040625 -301.1640625 422.6640625 C-303.4740625 422.6640625 -305.7840625 422.6640625 -308.1640625 422.6640625 Z M-314.1640625 423.6640625 C-314.1640625 423.9940625 -314.1640625 424.3240625 -314.1640625 424.6640625 C-312.5140625 424.6640625 -310.8640625 424.6640625 -309.1640625 424.6640625 C-309.1640625 424.3340625 -309.1640625 424.0040625 -309.1640625 423.6640625 C-310.8140625 423.6640625 -312.4640625 423.6640625 -314.1640625 423.6640625 Z M-323.1640625 425.6640625 C-319.1640625 426.6640625 -319.1640625 426.6640625 -319.1640625 426.6640625 Z " fill="#F2EDDD" transform="translate(485.1640625,267.3359375)"/>
<path d="M0 0 C0.99 0.33 1.98 0.66 3 1 C3.90954424 3.9273893 4.61280903 6.73573051 5.2421875 9.7265625 C5.66632609 11.62134126 6.09048049 13.51611648 6.51464844 15.41088867 C6.73568237 16.42170502 6.95671631 17.43252136 7.18444824 18.47396851 C10.9258212 35.54609072 15.0998968 52.43441926 19.9069519 69.23696899 C25.75028838 89.68769479 30.44634487 110.03756168 34 131 C34.3370369 132.97315135 34.67411597 134.9462955 35.01123047 136.91943359 C36.93639397 148.22127061 38.82487028 159.52893536 40.6643219 170.845047 C41.38619807 175.28268498 42.11904933 179.71757746 42.88720703 184.14746094 C43.09600494 185.36174271 43.09600494 185.36174271 43.309021 186.60055542 C43.56575418 188.08834081 43.82616947 189.57549861 44.09136963 191.0617981 C46.22234125 203.4680193 46.17835635 215.53894746 39.4375 226.5 C31.75730708 237.16279212 21.49058282 244.68839855 11.06591797 252.44677734 C8.62647797 254.28082571 6.23280482 256.16773275 3.84008789 258.06201172 C-10.22320551 269.12176741 -25.73830718 276.71035258 -42 284 C-43.18980469 284.53802246 -44.37960938 285.07604492 -45.60546875 285.63037109 C-79.40958606 300.74012485 -120.61739312 307.02210198 -157 298 C-158.21526367 297.70996094 -158.21526367 297.70996094 -159.45507812 297.4140625 C-185.18062247 291.1329198 -207.97165305 278.8958215 -229 263 C-229.58378418 262.56042969 -230.16756836 262.12085938 -230.76904297 261.66796875 C-238.29110044 255.97049766 -245.40383359 249.97097228 -252.2890625 243.51953125 C-255.33411457 240.68947565 -258.47565286 237.99686581 -261.671875 235.33984375 C-263 234 -263 234 -263 232 C-263.56203125 231.78730469 -264.1240625 231.57460937 -264.703125 231.35546875 C-267.76092614 229.55095005 -269.64233178 227.10225482 -271.75 224.3125 C-272.18393066 223.73943115 -272.61786133 223.1663623 -273.06494141 222.57592773 C-286.70433792 204.05961043 -291.66076554 184.63076335 -288.70263672 161.69433594 C-285.26437943 142.30497112 -273.01979606 123.11768164 -261 108 C-260.29101562 107.09765625 -259.58203125 106.1953125 -258.8515625 105.265625 C-250.57170545 94.92327648 -241.48989086 85.23868787 -232 76 C-236.48151089 79.50118038 -240.73958774 83.23645964 -245 87 C-246 85 -246 85 -245.49365234 83.17285156 C-245.19410645 82.4197168 -244.89456055 81.66658203 -244.5859375 80.890625 C-244.24369141 80.00979248 -243.90144531 79.12895996 -243.54882812 78.22143555 C-243.16146484 77.24086182 -242.77410156 76.26028809 -242.375 75.25 C-239.34668231 67.4262364 -236.47874841 59.57703246 -233.8203125 51.62109375 C-233.5489296 50.80942749 -233.27754669 49.99776123 -232.99794006 49.16149902 C-232.44382439 47.50310027 -231.8897935 45.84467318 -231.33584595 44.18621826 C-226.70697154 30.34843744 -221.91420541 16.89937029 -215 4 C-212.59197314 6.19375879 -211.17474677 8.29225611 -209.73046875 11.203125 C-209.31603516 12.01910156 -208.90160156 12.83507813 -208.47460938 13.67578125 C-207.62512877 15.37474246 -206.77870777 17.07523735 -205.93554688 18.77734375 C-202.21453679 26.08176108 -198.41047504 32.10556238 -191 36 C-188.47205459 36.44538239 -188.47205459 36.44538239 -185.79937744 36.38526917 C-184.77159683 36.39491699 -183.74381622 36.40456482 -182.68489075 36.414505 C-181.56716782 36.40992783 -180.44944489 36.40535065 -179.29785156 36.40063477 C-178.11142563 36.40761383 -176.92499969 36.4145929 -175.70262146 36.42178345 C-172.44658866 36.43835843 -169.19084167 36.44186797 -165.93477726 36.44024777 C-162.49216661 36.44219879 -159.04966917 36.46259989 -155.6071167 36.48143005 C-148.30736559 36.51863349 -141.00765046 36.53787647 -133.70782471 36.55297852 C-121.44510206 36.57836917 -109.18243701 36.61997031 -96.91983986 36.6810565 C-95.52577136 36.68795431 -94.13170165 36.69461015 -92.73763084 36.70102358 C-72.10737854 36.7970457 -51.55902104 37.17849981 -31 39 C-30.56675415 37.85144531 -30.56675415 37.85144531 -30.12475586 36.6796875 C-24.58576357 23.48325177 -10.22823245 9.70070183 0 0 Z M-8 33 C-9.3410005 35.4335567 -10.67294856 37.87135301 -12 40.3125 C-12.3815625 41.00279297 -12.763125 41.69308594 -13.15625 42.40429688 C-15.39999692 46.46677505 -15.39999692 46.46677505 -16 51 C-13.5839106 53.15109528 -13.5839106 53.15109528 -10.5625 55.1875 C-9.55316406 55.90292969 -8.54382813 56.61835937 -7.50390625 57.35546875 C-5.35997104 59.09149495 -5.35997104 59.09149495 -4 59 C-4.49389188 50.21392344 -5.36822681 41.64998215 -7 33 C-7.33 33 -7.66 33 -8 33 Z M-215 38 C-216.65 43.28 -218.3 48.56 -220 54 C-215.65137149 53.1302743 -212.83729307 52.0525056 -209 50 C-209.47503959 45.01208429 -210.9701136 41.9767259 -214 38 C-214.33 38 -214.66 38 -215 38 Z M-87 93 C-87 93.33 -87 93.66 -87 94 C-83.7 94 -80.4 94 -77 94 C-77 93.67 -77 93.34 -77 93 C-80.3 93 -83.6 93 -87 93 Z M-164 172 C-164 172.33 -164 172.66 -164 173 C-162.02 173 -160.04 173 -158 173 C-158 172.67 -158 172.34 -158 172 C-159.98 172 -161.96 172 -164 172 Z M-171 180 C-169.83943297 184.51331624 -167.68636708 186.52015349 -163.92578125 188.98828125 C-159.69984655 191.20839705 -156.06640023 191.14967021 -151.4375 190.5 C-147.00562652 188.56609157 -144.80593877 185.84403334 -142 182 C-151.27922286 178.63092832 -161.53833755 176.52428726 -171 180 Z " fill="#F1ECDC" transform="translate(289,0)"/>
<path d="M0 0 C2.46333089 2.229066 3.90295032 4.37137777 5.3125 7.375 C5.67988281 8.12523437 6.04726563 8.87546875 6.42578125 9.6484375 C7.20045179 12.8208978 6.52425526 14.14202139 5 17 C3.78734189 18.68915512 2.51194384 20.33449244 1.1875 21.9375 C0.465625 22.81148438 -0.25625 23.68546875 -1 24.5859375 C-1.99 25.78089844 -1.99 25.78089844 -3 27 C-4.1446875 28.5159375 -4.1446875 28.5159375 -5.3125 30.0625 C-22.73174792 49.10214307 -47.69960312 59.16164324 -72 66 C-72.66918457 66.19432617 -73.33836914 66.38865234 -74.02783203 66.58886719 C-93.42318355 72.16935246 -112.89770961 73.54307933 -133 73 C-133 73.66 -133 74.32 -133 75 C-136.96876727 74.48174173 -138.82939809 73.58254819 -141.625 70.75 C-150.25590982 62.86397171 -162.08102985 59.44522273 -173.6953125 59.734375 C-179.98332016 60.45909453 -186.45009471 61.83545104 -192.46484375 63.80859375 C-196.29515281 64.09778504 -199.09265301 62.3844401 -202.375 60.625 C-203.07471924 60.25995361 -203.77443848 59.89490723 -204.49536133 59.51879883 C-206.6757459 58.36698538 -208.83956217 57.18875766 -211 56 C-211.6595166 55.6405127 -212.3190332 55.28102539 -212.99853516 54.91064453 C-224.91054925 48.34047613 -245.40063072 36.16989681 -250.79296875 23.07421875 C-251.07114951 20.28716246 -251.09294163 17.55062981 -251.0625 14.75 C-251.04896484 13.13351562 -251.04896484 13.13351562 -251.03515625 11.484375 C-251.02355469 10.66453125 -251.01195312 9.8446875 -251 9 C-247.01493913 11.16579395 -243.29876125 13.46403937 -239.625 16.125 C-202.42525994 42.33771039 -158.20931986 56.94103047 -112.57397461 49.47827148 C-70.98891306 41.98974219 -33.63132017 25.36668918 0 0 Z " fill="#434244" transform="translate(303,255)"/>
<path d="M0 0 C2.2774963 1.66148107 4.3697586 3.20506515 6.27734375 5.28125 C6.27734375 6.27125 6.27734375 7.26125 6.27734375 8.28125 C7.26734375 8.61125 8.25734375 8.94125 9.27734375 9.28125 C13.76378522 15.9026188 15.19790326 23.40535196 14.27734375 31.28125 C12.53523209 37.11353687 9.93946964 41.30138644 5.27734375 45.28125 C4.53484375 45.9825 3.79234375 46.68375 3.02734375 47.40625 C-3.56401915 51.90036107 -10.71250845 52.8135378 -18.53515625 52.71875 C-19.40881836 52.71190186 -20.28248047 52.70505371 -21.18261719 52.69799805 C-31.80138235 52.43557577 -40.03388814 49.296551 -48.72265625 43.28125 C-45.58339454 42.27220159 -43.8623261 42.43222857 -40.72265625 43.28125 C-29.04238673 44.2101893 -18.74913776 42.47310033 -8.72265625 36.28125 C-7.50578125 35.78625 -6.28890625 35.29125 -5.03515625 34.78125 C-1.5114167 33.53762748 -1.5114167 33.53762748 0.27734375 30.28125 C0.73595727 26.68877743 0.75769241 24.96482309 -1.34765625 21.96875 C-4.26315798 19.89720929 -6.15692845 19.42678991 -9.72265625 19.28125 C-13.08505575 20.06320337 -14.38221063 20.87271525 -16.59765625 23.53125 C-18.00324313 26.96712904 -17.70352564 28.7350299 -16.72265625 32.28125 C-16.07625112 33.62452311 -15.4130827 34.96006359 -14.72265625 36.28125 C-16.28286492 36.93259925 -17.84594204 37.57707964 -19.41015625 38.21875 C-20.71533203 38.75822266 -20.71533203 38.75822266 -22.046875 39.30859375 C-32.37438117 43.06267993 -42.77247061 41.64962418 -52.72265625 37.28125 C-57.22311335 33.51270115 -58.904149 29.92786294 -59.53515625 24.15625 C-60.08160464 16.41317935 -58.5286577 10.13799224 -53.72265625 3.96875 C-40.96694944 -9.46689854 -14.85583153 -9.37814329 0 0 Z " fill="#FED954" transform="translate(156.72265625,323.71875)"/>
<path d="M0 0 C8.33019193 5.01849483 12.52541671 12.45125014 15.5546875 21.5390625 C16.16891147 27.68130219 14.87063841 32.40589555 11.5546875 37.5390625 C4.51354258 44.87223647 -5.60459983 48.08764491 -15.5234375 48.7421875 C-25.71389807 48.89278544 -33.4457986 47.56848051 -41.65625 41.33203125 C-43.4453125 39.5390625 -43.4453125 39.5390625 -45.08154297 36.61401367 C-47.95084486 32.88143183 -50.7057733 31.84712702 -55.0546875 30.546875 C-55.78149719 30.31120819 -56.50830688 30.07554138 -57.25714111 29.83273315 C-59.56401558 29.0897515 -61.87889365 28.37665861 -64.1953125 27.6640625 C-65.76754923 27.16340792 -67.33917277 26.66082332 -68.91015625 26.15625 C-72.74847146 24.92806977 -76.59423652 23.72659383 -80.4453125 22.5390625 C-80.4453125 21.8790625 -80.4453125 21.2190625 -80.4453125 20.5390625 C-69.52079885 22.77495937 -59.03420534 26.08397497 -48.4453125 29.5390625 C-48.7753125 25.5790625 -49.1053125 21.6190625 -49.4453125 17.5390625 C-51.07082031 17.11753906 -52.69632813 16.69601563 -54.37109375 16.26171875 C-56.50001397 15.70838706 -58.62891945 15.15499871 -60.7578125 14.6015625 C-61.82966797 14.32376953 -62.90152344 14.04597656 -64.00585938 13.75976562 C-65.03388672 13.49228516 -66.06191406 13.22480469 -67.12109375 12.94921875 C-68.06895752 12.70308838 -69.01682129 12.45695801 -69.9934082 12.20336914 C-71.82738093 11.70648178 -73.64272611 11.13992463 -75.4453125 10.5390625 C-75.1153125 9.8790625 -74.7853125 9.2190625 -74.4453125 8.5390625 C-65.2053125 10.5190625 -55.9653125 12.4990625 -46.4453125 14.5390625 C-45.7853125 12.5590625 -45.1253125 10.5790625 -44.4453125 8.5390625 C-43.7853125 7.5490625 -43.1253125 6.5590625 -42.4453125 5.5390625 C-43.445625 5.590625 -44.4459375 5.6421875 -45.4765625 5.6953125 C-52.37976909 5.6953125 -59.16728125 4.22497919 -65.9453125 3.0390625 C-67.35406302 2.79757167 -68.76291657 2.55668106 -70.171875 2.31640625 C-73.59757053 1.73087884 -77.02179746 1.13722312 -80.4453125 0.5390625 C-80.4453125 -0.1209375 -80.4453125 -0.7809375 -80.4453125 -1.4609375 C-60.24280225 0.32121558 -60.24280225 0.32121558 -52.1953125 1.6640625 C-42.91550568 3.38594871 -42.91550568 3.38594871 -34.2578125 0.6640625 C-32.865625 -0.3878125 -32.865625 -0.3878125 -31.4453125 -1.4609375 C-21.38490079 -5.58119295 -9.66032644 -4.68617461 0 0 Z " fill="#F5B096" transform="translate(258.4453125,189.4609375)"/>
<path d="M0 0 C1.010625 0.556875 2.02125 1.11375 3.0625 1.6875 C9.55062239 4.5864483 15.46975513 2.71285111 22 1 C25 0.875 25 0.875 27 1 C23.83433427 3.11044382 21.48802585 3.75552077 17.8125 4.625 C16.18248047 5.01558594 16.18248047 5.01558594 14.51953125 5.4140625 C13.68808594 5.60742188 12.85664062 5.80078125 12 6 C11.8 8.15 11.8 8.15 13.5 10 C15 12 15 12 15 14 C18.63 13.67 22.26 13.34 26 13 C23 15 23 15 20.4375 15.625 C17.89323221 16.7269072 17.89323221 16.7269072 17.26953125 18.80078125 C16.76902558 20.85925192 16.37957967 22.91643769 16 25 C15.505 26.485 15.505 26.485 15 28 C15.72445312 27.7834375 16.44890625 27.566875 17.1953125 27.34375 C26.79789104 24.57820738 26.79789104 24.57820738 32 25 C29.53693303 26.64204465 27.78171367 27.54844776 25.05859375 28.5078125 C24.31029297 28.77207031 23.56199219 29.03632813 22.79101562 29.30859375 C22.01435547 29.57800781 21.23769531 29.84742188 20.4375 30.125 C19.65697266 30.40214844 18.87644531 30.67929688 18.07226562 30.96484375 C12.26254618 33 12.26254618 33 10 33 C9.75121094 33.61488281 9.50242188 34.22976562 9.24609375 34.86328125 C7.77569389 37.38462521 6.68623547 37.99045123 4.0625 39.1875 C3.37285156 39.51105469 2.68320313 39.83460938 1.97265625 40.16796875 C-5.02248582 43.11839501 -13.66803599 43.22139697 -20.96484375 41.1640625 C-27.97691403 37.94434456 -33.10293319 32.95909596 -36.4375 26 C-37.14281406 22.23832501 -37.13188702 18.82472368 -37 15 C-37.99 15 -38.98 15 -40 15 C-40 14.34 -40 13.68 -40 13 C-39.01 12.67 -38.02 12.34 -37 12 C-35.53104149 9.80978959 -35.53104149 9.80978959 -34.1875 7.1875 C-26.97829204 -5.3658472 -12.33756307 -5.58967143 0 0 Z " fill="#F4AF95" transform="translate(70,184)"/>
<path d="M0 0 C1.14069946 0.01135986 1.14069946 0.01135986 2.30444336 0.02294922 C12.02215368 0.30642123 19.76582463 3.78796959 26.875 10.4375 C31.15571979 15.21367347 34.44561974 20.50981217 36.875 26.4375 C37.17535156 27.15550781 37.47570312 27.87351562 37.78515625 28.61328125 C41.15645969 38.4449429 40.13945682 49.18878094 39.875 59.4375 C39.215 59.4375 38.555 59.4375 37.875 59.4375 C37.72466309 58.85895264 37.57432617 58.28040527 37.41943359 57.68432617 C33.12875515 41.38591005 28.8507829 25.39633683 13.6875 16 C10.75870199 14.30729312 8.19684323 13.07980953 4.875 12.4375 C4.10542969 12.27765625 3.33585937 12.1178125 2.54296875 11.953125 C-0.30993429 11.64761727 -2.35330522 11.65047556 -5.125 12.4375 C-12.68514088 19.99764088 -17.96227798 33.52540927 -18.44140625 44.203125 C-18.48330078 45.09257812 -18.52519531 45.98203125 -18.56835938 46.8984375 C-18.60767578 47.81882813 -18.64699219 48.73921875 -18.6875 49.6875 C-18.75227539 51.09128906 -18.75227539 51.09128906 -18.81835938 52.5234375 C-18.9241805 54.82798641 -19.02626557 57.13263839 -19.125 59.4375 C-19.785 59.4375 -20.445 59.4375 -21.125 59.4375 C-26.31949177 41.99884905 -24.06534933 26.74877059 -16.125 10.625 C-15.79306641 9.94920898 -15.46113281 9.27341797 -15.11914062 8.57714844 C-11.29400444 1.23123366 -8.10113502 -0.11144699 0 0 Z " fill="#474547" transform="translate(207.125,93.5625)"/>
<path d="M0 0 C7.61792476 7.4120349 8.38199607 17.05519104 8.54296875 27.23828125 C8.53903728 29.67972635 8.52458143 32.12117549 8.5 34.5625 C8.49935547 35.79806641 8.49871094 37.03363281 8.49804688 38.30664062 C8.47158973 43.75387336 8.32098568 48.88364902 7.3125 54.25 C6.3225 54.25 5.3325 54.25 4.3125 54.25 C3.25660929 48.19547771 2.35041908 42.19257179 1.91015625 36.0625 C0.92003831 20.17589112 0.92003831 20.17589112 -7.5625 7.125 C-11.36289573 4.84476256 -13.32661883 4.53640126 -17.6875 5.25 C-28.07352637 12.39649777 -33.40265203 26.23130687 -35.6875 38.25 C-36.03418337 41.58024116 -36.18917604 44.90483763 -36.3125 48.25 C-36.37050781 49.55517578 -36.37050781 49.55517578 -36.4296875 50.88671875 C-36.52290887 53.00750486 -36.60624136 55.12872185 -36.6875 57.25 C-38.6875 56.25 -38.6875 56.25 -39.75 53.6875 C-43.85880991 38.62186367 -42.58437496 21.36959611 -34.875 7.625 C-26.24635608 -5.28536396 -13.26833866 -8.63984843 0 0 Z " fill="#484748" transform="translate(98.6875,100.75)"/>
<path d="M0 0 C0.86616491 2.410198 1.1663451 3.57627518 0.21484375 6 C-3.91524518 12.46668358 -8.40748695 16.10187174 -16 18 C-17.99978377 18.02940858 -20.00027772 18.0333287 -22 18 C-21.69116691 22.02112371 -21.37727701 26.04183756 -21.0625 30.0625 C-20.97548828 31.19623047 -20.88847656 32.32996094 -20.79882812 33.49804688 C-20.36308713 39.03357138 -19.88333165 44.51697744 -19 50 C-11.05215813 46.5122092 -5.51302878 43.30352256 -2 35 C-1.34 35 -0.68 35 0 35 C0.49652268 40.95827215 -0.64524233 45.01671919 -4 50 C-9.94362422 55.646443 -14.69042943 56.45176045 -22.73046875 56.31640625 C-28.64038567 55.74447881 -32.33696876 53.70567306 -36.4375 49.5 C-37.84976556 47.24037511 -38.61268136 45.61440085 -39 43 C-38.01 43 -37.02 43 -36 43 C-35.13375 43.928125 -35.13375 43.928125 -34.25 44.875 C-31.39303758 47.57324229 -28.78026645 48.12763082 -25 49 C-25.16226074 48.12891602 -25.32452148 47.25783203 -25.49169922 46.36035156 C-25.96154946 43.25419464 -26.12913262 40.37068422 -26.1328125 37.234375 C-26.13474609 35.65269531 -26.13474609 35.65269531 -26.13671875 34.0390625 C-26.13285156 32.95367187 -26.12898438 31.86828125 -26.125 30.75 C-26.12886719 29.64914063 -26.13273437 28.54828125 -26.13671875 27.4140625 C-26.13542969 26.36476562 -26.13414063 25.31546875 -26.1328125 24.234375 C-26.13168457 23.27756836 -26.13055664 22.32076172 -26.12939453 21.33496094 C-26 19 -26 19 -25 17 C-25.70125 16.9175 -26.4025 16.835 -27.125 16.75 C-33.39236518 15.11503517 -37.35287551 11.10597429 -41 6 C-41.8125 3.125 -41.8125 3.125 -42 1 C-29.10183991 -7.88539917 -14.15613852 -3.92447404 0 0 Z M-35 3 C-33.83943297 7.51331624 -31.68636708 9.52015349 -27.92578125 11.98828125 C-23.69984655 14.20839705 -20.06640023 14.14967021 -15.4375 13.5 C-11.00562652 11.56609157 -8.80593877 8.84403334 -6 5 C-15.27922286 1.63092832 -25.53833755 -0.47571274 -35 3 Z " fill="#474647" transform="translate(153,177)"/>
<path d="M0 0 C3.28236911 2.29002496 4.87055686 4.31099615 6.6875 7.875 C7.339294 11.78576402 6.89769695 13.47077511 5.0625 17 C1.69851957 21.07218683 -0.78802439 23.53931668 -6.19140625 24.2578125 C-10.91974765 24.43186188 -14.26013068 24.46432682 -18.4375 22.125 C-21.9881644 17.86420272 -22.76859391 14.52413688 -22.625 9.05859375 C-22.14143886 5.67971025 -20.82492458 4.12295884 -18.3125 1.875 C-12.45681821 -2.07418074 -6.54870883 -2.22408979 0 0 Z " fill="#FFF7E0" transform="translate(127.3125,328.125)"/>
<path d="M0 0 C3 2 3 2 3.79956055 5.23706055 C4.00922029 6.61823569 4.20394543 8.00172925 4.38671875 9.38671875 C4.54682182 10.48956963 4.54682182 10.48956963 4.7101593 11.61470032 C4.93383717 13.17316243 5.15113328 14.73255174 5.36254883 16.29272461 C5.68415389 18.66284036 6.02480464 21.02957558 6.36914062 23.39648438 C6.58446848 24.91390185 6.79869588 26.43147597 7.01171875 27.94921875 C7.11167648 28.65052414 7.21163422 29.35182953 7.31462097 30.0743866 C7.90009589 34.43674042 8.09042703 38.61268049 8 43 C6.328125 43.72265625 6.328125 43.72265625 4 44 C1.484375 42.55859375 1.484375 42.55859375 -1.25 40.4375 C-2.69052734 39.33728516 -2.69052734 39.33728516 -4.16015625 38.21484375 C-5.09730469 37.48394531 -6.03445313 36.75304688 -7 36 C-8.56029653 34.83038805 -10.12248938 33.66329666 -11.6875 32.5 C-12.79230911 31.66751859 -13.89675174 30.83454883 -15 30 C-13.51649935 19.31563895 -8.40138582 9.59430389 -2 1 C-1.34 0.67 -0.68 0.34 0 0 Z M-2 10 C-3.3410005 12.4335567 -4.67294856 14.87135301 -6 17.3125 C-6.3815625 18.00279297 -6.763125 18.69308594 -7.15625 19.40429688 C-9.39999692 23.46677505 -9.39999692 23.46677505 -10 28 C-7.5839106 30.15109528 -7.5839106 30.15109528 -4.5625 32.1875 C-3.55316406 32.90292969 -2.54382813 33.61835937 -1.50390625 34.35546875 C0.64002896 36.09149495 0.64002896 36.09149495 2 36 C1.50610812 27.21392344 0.63177319 18.64998215 -1 10 C-1.33 10 -1.66 10 -2 10 Z " fill="#474647" transform="translate(283,23)"/>
<path d="M0 0 C0.84175781 0.35964844 1.68351562 0.71929687 2.55078125 1.08984375 C4.71322011 2.0348598 6.8607997 3.00372941 9 4 C9 4.33 9 4.66 9 5 C7.17625854 5.31022095 7.17625854 5.31022095 5.31567383 5.62670898 C0.79618151 6.3956768 -3.72314896 7.1655922 -8.24243164 7.93579102 C-10.19681481 8.2687312 -12.15124152 8.60141588 -14.10571289 8.93383789 C-16.91824705 9.41224759 -19.7306223 9.89158196 -22.54296875 10.37109375 C-23.41398727 10.51904892 -24.2850058 10.66700409 -25.18241882 10.81944275 C-29.13355841 11.49397433 -33.07550019 12.18137112 -37 13 C-34.07128195 6.04935578 -31.61035068 1.79483095 -25 -2 C-16.79173223 -4.73608926 -7.78767996 -3.39026505 0 0 Z " fill="#F4AF96" transform="translate(70,184)"/>
<path d="M0 0 C5.47512235 0.51998369 5.47512235 0.51998369 7.828125 2.671875 C11.93006693 8.66702089 14.10137102 12.59991547 14 20 C11.4401499 21.15208295 8.87741487 22.29679373 6.3125 23.4375 C5.2306543 23.92573242 5.2306543 23.92573242 4.12695312 24.42382812 C0.43453168 26.0592842 -2.96466087 27.43489334 -7 28 C-6.3212527 21.80535692 -4.6957044 16.03060448 -2.9375 10.0625 C-2.51500977 8.6074707 -2.51500977 8.6074707 -2.08398438 7.12304688 C-1.39353534 4.74743409 -0.69877999 2.37317295 0 0 Z M3 6 C1.35 11.28 -0.3 16.56 -2 22 C2.34862851 21.1302743 5.16270693 20.0525056 9 18 C8.52496041 13.01208429 7.0298864 9.9767259 4 6 C3.67 6 3.34 6 3 6 Z " fill="#464546" transform="translate(71,32)"/>
<path d="M0 0 C5.93844041 1.18158509 11.87497444 2.37222674 17.81005859 3.57055664 C19.82065085 3.97526961 21.83170577 4.37769229 23.84326172 4.77758789 C36.73204602 7.3418318 49.39630198 10.27049505 62 14 C62 14.66 62 15.32 62 16 C55.72664126 15.44728117 49.55425652 14.72194731 43.375 13.5 C42.56321289 13.33983398 41.75142578 13.17966797 40.91503906 13.01464844 C27.09635065 10.12843491 13.54597649 5.94312622 0 2 C0 1.34 0 0.68 0 0 Z " fill="#564E4D" transform="translate(183,198)"/>
<path d="M0 0 C-4.6460584 3.09737227 -9.87761887 3.99554499 -15.25 5.375 C-17.05718506 5.83918335 -17.05718506 5.83918335 -18.90087891 6.31274414 C-34.26218901 10.17073183 -50.05226659 14.10195471 -66 13 C-63.33317364 11.56129778 -60.97676661 10.65339395 -58 10.10546875 C-57.20875732 9.95706543 -56.41751465 9.80866211 -55.60229492 9.65576172 C-54.7435376 9.50123535 -53.88478027 9.34670898 -53 9.1875 C-51.64708862 8.93637451 -51.64708862 8.93637451 -50.2668457 8.68017578 C-44.73855883 7.66032701 -39.20337926 6.67954567 -33.66796875 5.69921875 C-32.42724609 5.47919189 -31.18652344 5.25916504 -29.90820312 5.0324707 C-27.47129623 4.60185454 -25.0338129 4.17448492 -22.59570312 3.75073242 C-17.81418535 2.91056117 -13.06626757 2.07128603 -8.36328125 0.859375 C-5.39205237 0.10017598 -3.0410655 -0.19006659 0 0 Z " fill="#5A504E" transform="translate(97,185)"/>
<path d="M0 0 C21.77362522 1.82648512 43.37919991 4.88736639 65 8 C65 8.66 65 9.32 65 10 C56.16897689 10.33239863 47.67190279 9.21790668 38.9440918 8.02856445 C36.46824396 7.69168324 33.99116924 7.36551727 31.51367188 7.04101562 C20.95453358 5.63919967 10.47350487 3.93835234 0 2 C0 1.34 0 0.68 0 0 Z " fill="#574F4E" transform="translate(178,188)"/>
<path d="M0 0 C-2.60010678 1.73340452 -4.45518154 2.61361109 -7.359375 3.5859375 C-8.22127441 3.87525146 -9.08317383 4.16456543 -9.97119141 4.46264648 C-10.88819824 4.76372314 -11.80520508 5.0647998 -12.75 5.375 C-13.68634277 5.68445557 -14.62268555 5.99391113 -15.58740234 6.31274414 C-36.06373431 13 -36.06373431 13 -42 13 C-42 12.34 -42 11.68 -42 11 C-8.97715997 -0.42505492 -8.97715997 -0.42505492 0 0 Z " fill="#554F4F" transform="translate(96,197)"/>
<path d="M0 0 C10.19955723 2.08752159 19.97812342 5.11597744 29.87109375 8.31738281 C33.89553377 9.60778812 37.94674126 10.80395644 42 12 C42 12.66 42 13.32 42 14 C32.83134603 13.59319965 24.52981593 10.39894265 15.9375 7.4375 C14.3889566 6.91127076 12.84013047 6.38587276 11.29101562 5.86132812 C7.52401266 4.58378787 3.76102455 3.29502926 0 2 C0 1.34 0 0.68 0 0 Z " fill="#504E4F" transform="translate(178,210)"/>
<path d="M0 0 C-4.55847125 3.03898083 -9.66178369 4.5380706 -14.8046875 6.3684082 C-16.73209612 7.05611186 -18.65512543 7.75515559 -20.578125 8.45507812 C-22.41890625 9.1134668 -22.41890625 9.1134668 -24.296875 9.78515625 C-25.41416992 10.18613525 -26.53146484 10.58711426 -27.68261719 11.00024414 C-31.12139187 12.03658373 -34.4374227 12.58191942 -38 13 C-38 12.34 -38 11.68 -38 11 C-9.83524848 -0.36808565 -9.83524848 -0.36808565 0 0 Z " fill="#544C4C" transform="translate(102,209)"/>
<path d="M0 0 C11.39262351 1.00499388 22.72572841 2.0338005 34 4 C34 4.99 34 5.98 34 7 C22.56822166 5.78385337 11.2988367 4.12118336 0 2 C0 1.34 0 0.68 0 0 Z " fill="#6C6A67" transform="translate(178,188)"/>
<path d="M0 0 C-3.13682962 2.09121974 -5.46451312 2.79044981 -9.09375 3.7265625 C-10.28871094 4.0359375 -11.48367187 4.3453125 -12.71484375 4.6640625 C-13.96394531 4.98117188 -15.21304688 5.29828125 -16.5 5.625 C-17.74910156 5.94984375 -18.99820313 6.2746875 -20.28515625 6.609375 C-29.59654018 9 -29.59654018 9 -33 9 C-33 8.34 -33 7.68 -33 7 C-33.66 6.67 -34.32 6.34 -35 6 C-30.9375 5.1875 -26.875 4.375 -22.8125 3.5625 C-21.66201172 3.33240234 -20.51152344 3.10230469 -19.32617188 2.86523438 C-17.17163086 2.43432617 -15.01708984 2.00341797 -12.86254883 1.57250977 C-11.00749124 1.20149825 -9.15428492 0.82105603 -7.3034668 0.42944336 C-4.82368614 -0.03287081 -2.51679623 -0.07190846 0 0 Z " fill="#635B59" transform="translate(97,185)"/>
<path d="M0 0 C13.6332574 3.07517084 13.6332574 3.07517084 20 5 C20 5.99 20 6.98 20 8 C13.24947898 6.22089072 6.59379663 4.29561809 0 2 C0 1.34 0 0.68 0 0 Z " fill="#62605F" transform="translate(178,210)"/>
<path d="M0 0 C10.395 1.98 10.395 1.98 21 4 C20.01 4.495 20.01 4.495 19 5 C19 5.66 19 6.32 19 7 C16.39546825 6.35561067 13.7913709 5.7095496 11.1875 5.0625 C10.44951172 4.88009766 9.71152344 4.69769531 8.95117188 4.50976562 C5.92939016 3.7577385 2.95543282 2.98514427 0 2 C0 1.34 0 0.68 0 0 Z " fill="#666462" transform="translate(183,198)"/>
<path d="M0 0 C1.916588 -0.02712153 3.8332873 -0.04645097 5.75 -0.0625 C7.35101563 -0.07990234 7.35101563 -0.07990234 8.984375 -0.09765625 C11.53368501 -0.01510087 13.57933591 0.25382442 16 1 C16 1.66 16 2.32 16 3 C10.26157749 3.20413361 5.39460953 3.27141454 0 1 C0 0.67 0 0.34 0 0 Z " fill="#675854" transform="translate(227,195)"/>
<path d="M0 0 C-3.06975587 2.04650391 -5.69084152 2.99704565 -9.1875 4.125 C-10.27417969 4.47820312 -11.36085938 4.83140625 -12.48046875 5.1953125 C-13.31191406 5.46085938 -14.14335938 5.72640625 -15 6 C-15.33 5.01 -15.66 4.02 -16 3 C-5.62642369 -0.44419134 -5.62642369 -0.44419134 0 0 Z " fill="#605F5E" transform="translate(102,209)"/>
<path d="M0 0 C0.33 0.66 0.66 1.32 1 2 C-2.96 2.66 -6.92 3.32 -11 4 C-11 3.34 -11 2.68 -11 2 C-9.73392393 1.46770674 -8.46189588 0.94955456 -7.1875 0.4375 C-6.47980469 0.14746094 -5.77210937 -0.14257812 -5.04296875 -0.44140625 C-3 -1 -3 -1 0 0 Z " fill="#665754" transform="translate(65,206)"/>
<path d="M0 0 C0 0.66 0 1.32 0 2 C-3.63 2.66 -7.26 3.32 -11 4 C-10.67 3.01 -10.34 2.02 -10 1 C-6.78548731 -0.60725635 -3.56387464 -0.05748185 0 0 Z " fill="#504A4A" transform="translate(64,192)"/>
<path d="M0 0 C2.31 0.66 4.62 1.32 7 2 C7 2.66 7 3.32 7 4 C4.03 3.67 1.06 3.34 -2 3 C-1.34 2.67 -0.68 2.34 0 2 C0 1.34 0 0.68 0 0 Z " fill="#695A56" transform="translate(213,220)"/>
<path d="M0 0 C0 0.99 0 1.98 0 3 C-3.3 2.67 -6.6 2.34 -10 2 C-10 1.67 -10 1.34 -10 1 C-6.59437148 0.22157062 -3.49234244 -0.09978121 0 0 Z " fill="#72706D" transform="translate(212,192)"/>
</svg>
