<svg xmlns="http://www.w3.org/2000/svg" width="647.683" height="582.19">
  <path d="M666.57 146.006c-9.75-56.53-44.83-89.66-101.35-83.8-50.67 3.9-191.002-1.95-267.002-1.95-33.14-.05-107.22-1.96-134.49 21.43-31.18 29.23-35.08 44.83-39 81.86-3.9 62.37 1.95 204.64 1.95 267 0 42.88 11.8 88.59 54.68 108.08 52.62 23.39 177.39 17.22 249 14.3 68.852-2.81 199.152 23.79 232.282-63.91 17.57-50.67 13.67-286.49 3.93-343.01z" style="fill:#fec6b9;stroke-width:1px" transform="translate(-144.917 -70.704) scale(1.17449)"/>
  <path d="M330.929 44.603c-6.88-4-10.47-14.78-13.76-22.48-8.42 18-11.45 37.81-18.82 56.17a169.81 169.81 0 0 1 8.17-8.64c.62-.62 1.51.3 1 1-13.25 15.33-26.85 32.77-32.72 52.47-6.19 20.74-.81 38.91 12.66 54.91a.67.67 0 0 1 .54.63c.52.6 1 1.2 1.55 1.79 13.21 14.6 30.3 29.62 48.41 37.72a81.709 81.709 0 0 0 33.87 7.35c10.26-.08 20-2.13 30-4 10.92-4.73 21.9-9.43 32.15-15.51 6.33-3.76 11.71-8.54 17.2-13.44.87-.77 1.77-1.56 2.69-2.36.159-.345.457-.607.82-.72 6-5.24 12.55-11.15 15.74-18.13 4.15-9.06 1.23-21.78-.25-31.16-3.61-22.88-5.7-46.08-11.73-68.5-4.67-17.37-8.09-35.05-11.64-52.69-7.67 8-13.8 17.22-19.53 26.72a1.43 1.43 0 0 1-1.25.72 727.817 727.817 0 0 0-21.88-1.55c-11.78-.66-23.33-.21-35.12-.18l-20 .05-12 .06c-1.64-.02-4.59.69-6.1-.23zm-20.55 13.92a145.498 145.498 0 0 0 4.76-17.7 1.14 1.14 0 0 1 1.66-.68c3.87 2.88 5.58 7.53 6.75 12.06a1.15 1.15 0 0 1-.52 1.27 68.65 68.65 0 0 1-7.16 3.79 19.486 19.486 0 0 1-4.08 1.75v.11c-.35.78-1.68.22-1.41-.6zm25.59 65.37a.89.89 0 0 1-1.74.24c-1.56-7.11-.66-14.55-2-21.71-.81-4.33-6.1-16.94-12.48-11-7.92 7.39-11.76 24-10.07 34.46a.518.518 0 0 1-1 .27c-4.11-10.86-2.49-36.45 10.54-41.26 7.46-2.75 14.53 3.12 16 10.33 2.02 9.56.85 19.08.75 28.69zm97.8-71.94a50.32 50.32 0 0 1 7.74-17 1.22 1.22 0 0 1 2.25.61c1.18 9 2.22 17.94 3.27 26.91a1.32 1.32 0 0 1-1.981 1.141l-.019-.011a128.948 128.948 0 0 1-11.76-9.41 1.38 1.38 0 0 1 .5-2.22zm-47.51 40.42c1.64-3.94 2.69-8.88 7.41-9.58a21.391 21.391 0 0 1 10.64 1.25c14.33 5.36 17.58 25.27 16.32 38.59a.65.65 0 0 1-1.29 0c-1.38-10.76-5.52-24.5-15.45-30.48a14.756 14.756 0 0 0-9.26-2.3c-1.64.16-4.72 6.67-5.43 8.16a41.59 41.59 0 0 0-3.85 24.55.59.59 0 0 1-1.14.31c-3.11-9.64-1.83-21.15 2.05-30.47zm-47 48c6.71-6 16.59-2.6 24.26-.54a1.61 1.61 0 0 1 1.11 2c-1.89 6.49-7.92 10.63-13.77 9.81-.034 4.009.173 8.016.62 12 .21 2.65.08 7.58 1.36 10.49 5.58-.74 8.74-4.93 10.23-10.09a.62.62 0 0 1 1.22.16c.26 6.82-3.56 13.57-11 13.92-5.68.27-11.15-2.69-12.42-8.54-.12-.57.71-1 1-.41 1.43 2.95 4.81 4.62 8.12 5-2.44-5.35-1.54-18.76-.71-22.82-.44-.129-.871-.286-1.29-.47-4.13-1.23-7.11-4.52-9-8.62a1.52 1.52 0 0 1 .26-1.82z" style="fill:#f2eddd;stroke-width:1px" transform="matrix(1.1745 0 0 1.0281 -193.481 7.582)"/>
  <path d="M362.569 239.763c-4.71-2.27-9.18-2.47-13.87-2.31-9.08 1.4-17.15 6.21-17.62 17.16a20.203 20.203 0 0 0 2.49 10.79c4.72 3 10.51 4.67 16 3.25a24.017 24.017 0 0 0 7.71-3.31c-4-3.32-2.7-11.61 4-11.61 8.27 0 8.35 12.66.26 12.94-3.53 3.16-9.26 5-13.13 5.34a21.242 21.242 0 0 1-11.06-1.7 25.998 25.998 0 0 0 19.68 6.84c12.41-.83 20.41-11.63 16.65-23.8a24.764 24.764 0 0 0-2.76-6 1.14 1.14 0 0 1-1-1.45 20.189 20.189 0 0 0-7.35-6.14z" style="fill:#ffd954;stroke-width:1px" transform="matrix(1.1745 0 0 1.0281 -193.481 7.582)"/>
  <path d="M452.029 196.933a135.481 135.481 0 0 1-51.19 28.2.882.882 0 0 1-.64-.06c-19.57 7.41-43.14 6.5-62-1.93a145.353 145.353 0 0 1-34.34-22.33c.12 3.227.22 6.453.3 9.68a1.2 1.2 0 0 1 .51.38 89.602 89.602 0 0 0 15.85 16.07c5.52 4.31 11.58 7.08 17.47 10.67a21.722 21.722 0 0 1 7-2.49 27.07 27.07 0 0 1 27.62 10c31.94-.25 70.29-12.28 85.38-42.28-1.14-2.74-2.21-5.51-3.25-8.28z" style="fill:#434244;stroke-width:1px" transform="matrix(1.1745 0 0 1.0281 -193.481 7.582)"/>
  <path d="M321.149 52.973c-.88-3.06-2.06-6.38-4.25-8.73a89.559 89.559 0 0 1-4 13c.94-.48 2-.87 2.84-1.32 1.85-.89 3.7-1.86 5.41-2.95z" style="fill:#ed9583;stroke-width:1px" transform="matrix(1.1745 0 0 1.0281 -193.481 7.582)"/>
  <path d="M511.206 450.221c-16.015 22.882-42.038 33.575-58.237 41.585-12.456 6.159-27.162 3.171-41.747 1.993-13.063-1.1-26.806-2-39.553 1.77-13.063 3.81-20.95 11.57-26.56 23.6 12.018-.9 24.105-1.1 36.024.4 19.915 2.51 30.923 14.065 74.716 12.854 51.231-1.417 154.118-111.024 124.724-167.2-45.248-86.474-83.506-167.061 32.028-92.866 30.744 19.743 34.083-20.951-47.069-67.363-50.891-41.501-92.563 2.901-71.565 43.899 65.806 128.486 51.422 152.487 17.239 201.328z" style="fill:#f2eddd;stroke-width:1px" transform="matrix(1.1745 0 0 1.0281 -193.481 7.582)"/>
  <path d="M426.439 233.193a118.278 118.278 0 0 1-52.25 11.33 22.318 22.318 0 0 1 2.37 6.12c3 13.34-5.09 26.62-19.5 27-15.71.4-31-9.95-29.32-27a20.3 20.3 0 0 1 7.7-14.33c-12.41-4.13-24-14.11-31.19-24.91.91 47.53-2.25 95.18 2.1 142.61 2.72 29.67 8 59.19 13.84 88.38 5.35 26.66 12.93 52.72 18.83 79.22l3.23-.28a31.528 31.528 0 0 1 7.19-14.47c-2.5-14.47.38-30 .53-44.59.13-13 .2-26 .66-39-3.55-.58-6.67-3.36-9.2-5.88a24.665 24.665 0 0 1-5.68-8.59c-.17-.42.46-.62.69-.29a35.989 35.989 0 0 0 7.43 7.75c2.27 1.79 4.88 3.11 6.84 5.16.15-4 .34-8 .59-12a.35.35 0 0 1 .7 0c0 17.63 1.39 35.19 1.59 52.81.16 14.07-.9 28.14-1.78 42.17 9.68-9 24.68-12.32 38.65-13.14 3.72-10.5 8.43-20.63 12.15-31.14 3.59-10.16 5.7-20.44 8.66-30.73a.242.242 0 0 1 .48.06c.93 10.27-2.91 21.9-6.14 31.49-3.47 10.32-7.41 20.62-12.65 30.19 3.32-.13 6.57-.12 9.64 0 11.79.39 23.57 1.88 35.26 3.43-4.74-10.36-6.31-22.3-7.28-33.52a202.581 202.581 0 0 1 .85-43.22c3.17-24.58 11.32-50.88 29.2-68.84.49-.49 1.22.25.76.76-17.33 19.23-23.8 46.76-26.32 71.87a199.536 199.536 0 0 0-.29 39.44c1.14 11.6 3.95 22.68 6.47 34 13-5.56 26-11.2 38-18.7 14.15-8.86 24.87-19.79 34.44-33.45 16.52-23.59 25.55-49.62 19.24-78.42-6.81-31.07-21.66-60.56-36.1-88.68-12.39-23.9-26.65-47.64-37.39-72.53-5.38 13.84-20.26 23.98-33 29.92z" style="fill:#f2eddd;stroke-width:1px" transform="matrix(1.1745 0 0 1.0281 -193.481 7.582)"/>
  <path d="M319.249 85.923c-13 4.81-14.65 30.39-10.54 41.26a.518.518 0 0 0 1-.27c-1.69-10.49 2.15-27.07 10.07-34.46 6.37-5.95 11.67 6.66 12.48 11 1.33 7.16.42 14.59 2 21.71a.89.89 0 0 0 1.74-.24c.1-9.61 1.27-19.13-.7-28.65-1.52-7.22-8.59-13.1-16.05-10.35zm66.1 37.67a41.59 41.59 0 0 1 3.85-24.55c.71-1.49 3.79-8 5.43-8.16 3.256-.28 6.513.529 9.26 2.3 9.93 6 14.07 19.72 15.45 30.48a.65.65 0 0 0 1.29 0c1.26-13.32-2-33.23-16.32-38.59a21.391 21.391 0 0 0-10.64-1.25c-4.72.7-5.77 5.64-7.41 9.58-3.89 9.32-5.16 20.84-2.06 30.51a.597.597 0 1 0 1.15-.32zm-37.36 28.28c.419.184.85.341 1.29.47-.83 4.06-1.73 17.47.71 22.82-3.32-.36-6.69-2-8.12-5-.28-.57-1.11-.15-1 .41 1.28 5.85 6.74 8.81 12.42 8.54 7.41-.35 11.23-7.1 11-13.92a.62.62 0 0 0-1.22-.16c-1.5 5.16-4.65 9.35-10.23 10.09-1.27-2.91-1.15-7.84-1.36-10.49a100.014 100.014 0 0 1-.62-12c5.86.82 11.88-3.33 13.77-9.81a1.61 1.61 0 0 0-1.11-2c-7.66-2.06-17.55-5.48-24.26.54a1.52 1.52 0 0 0-.23 1.81c1.85 4.17 4.83 7.47 8.96 8.7zm13.08-8.29c-2.16 5.82-7.82 8-13.2 5.79a18.153 18.153 0 0 1-5.69-6.42c5.26-3.62 12.95-.95 18.89.63zm-49.32-83.47v-.11a19.486 19.486 0 0 0 4.08-1.75 68.65 68.65 0 0 0 7.16-3.79 1.15 1.15 0 0 0 .52-1.27c-1.17-4.52-2.88-9.18-6.75-12.06a1.14 1.14 0 0 0-1.66.68 145.536 145.536 0 0 1-4.72 17.71c-.27.82 1.06 1.38 1.37.59zm5.15-15.88c2.19 2.35 3.38 5.68 4.25 8.73-1.75 1.09-3.56 2.06-5.41 3-.88.45-1.89.84-2.84 1.32 1.663-4.239 3-8.598 4-13.04zm128.16 20.44a1.32 1.32 0 0 0 2-1.108v-.022c-1.05-9-2.1-18-3.27-26.91a1.22 1.22 0 0 0-2.25-.61 50.32 50.32 0 0 0-7.74 17 1.38 1.38 0 0 0-.47 2.28 128.874 128.874 0 0 0 11.73 9.37zm-3.32-24.68c.82 6.887 1.603 13.78 2.35 20.68a98.67 98.67 0 0 1-8.55-7.21c1.85-4.65 3.59-9.26 6.19-13.48z" style="fill:#434244;stroke-width:1px" transform="matrix(1.1745 0 0 1.0281 -193.481 7.582)"/>
  <path d="M352.539 252.003c0 5.07-4.71 9.07-9.53 9.07-4.82 0-7.92-4-7.92-9.07s4.71-8.61 9.52-8.61 7.93 3.54 7.93 8.61z" style="fill:#fff8e3;stroke-width:1px" transform="matrix(1.1745 0 0 1.0281 -193.481 7.582)"/>
  <path d="M324.309 158.813c-.309 12.367-13.889 19.762-24.445 13.311a16.068 16.068 0 0 1-7.685-13.311c0-8.62 4-15.61 12.86-15.61s19.27 7 19.27 15.61zm76.26 15.87c-5.19-8.71-2.13-20.1 6.84-25.45 8.97-5.35 20.44-2.61 25.63 6.1 5.19 8.71 5.4 18.19-3.6 23.52-9 5.33-23.68 4.54-28.87-4.17z" style="opacity:.7;fill:#f99678;stroke-width:1px" transform="matrix(1.1745 0 0 1.0281 -193.481 7.582)"/>
  <path d="M379.519 149.083c12.57 2.41 25.19 4.81 38 5.76.69.05.85-1.11.16-1.22-12.62-1.95-25.29-3.49-37.94-5.27-.47-.07-.68.63-.2.73zm2.75 6.91c11.88 4 24 7.78 36.4 10a.78.78 0 0 0 .41-1.5c-12-3.57-24.4-6.24-36.59-9.28a.405.405 0 1 0-.22.78zm-2.76 8.29c8.09 2.63 15.7 6.69 24 8.52a.7.7 0 0 0 .37-1.35c-8.09-2.55-15.85-6.24-24.17-8a.43.43 0 0 0-.23.83zm-48.83-18.5c-13.25 3.43-26.7 5.61-40 8.56-.64.14-.51 1.23.16 1.16a170.26 170.26 0 0 0 40-9.36.19.19 0 0 0-.1-.36zm-.73 8.08c-8.37 2.25-17 4.59-25 8.16-.58.26-.15 1.11.41 1 8.43-1.87 16.74-5.22 24.75-8.42.44-.18.28-.86-.2-.73zm3.49 8.37c-7.7 1.49-15.2 4.69-22.34 7.87-.79.35-.22 1.62.58 1.38 7.5-2.26 14.6-5.93 21.91-8.73a.27.27 0 0 0-.14-.52z" style="fill:#434244;stroke-width:1px" transform="matrix(1.1745 0 0 1.0281 -193.481 7.582)"/>
</svg>
